<?xml version="1.0" standalone="no"?>
<!DOCTYPE svg PUBLIC "-//W3C//DTD SVG 20010904//EN"
 "http://www.w3.org/TR/2001/REC-SVG-20010904/DTD/svg10.dtd">
<svg version="1.0" xmlns="http://www.w3.org/2000/svg"
 width="124.000000pt" height="124.000000pt" viewBox="0 0 1024.000000 1024.000000"
 preserveAspectRatio="xMidYMid meet">
<metadata>
Created by potrace 1.16, written by Peter Selinger 2001-2019
</metadata>
<g transform="translate(0.000000,1024.000000) scale(0.100000,-0.100000)"
fill="#ffffff" stroke="none">
<path d="M3895 8440 c-456 -71 -854 -411 -1201 -1027 -127 -225 -622 -1292
-609 -1313 14 -22 38 -5 140 99 214 219 434 338 532 287 62 -32 113 -141 119
-256 1 -35 8 -66 14 -68 6 -2 46 34 90 81 119 126 228 174 330 147 34 -9 60
-27 109 -77 l65 -66 15 24 c132 199 292 388 415 488 98 80 110 84 45 15 -184
-195 -343 -413 -438 -603 l-32 -62 -38 58 c-44 66 -78 94 -145 117 -89 30 -99
26 -138 -61 -144 -316 -188 -696 -127 -1106 23 -161 24 -244 3 -345 -30 -147
-93 -242 -186 -282 -173 -74 -415 105 -473 351 -41 174 2 427 104 616 35 64
37 76 16 93 -21 17 -79 -22 -170 -114 -413 -417 -367 -1104 92 -1399 151 -98
294 -132 512 -124 271 9 409 64 796 315 239 154 345 218 345 207 0 -12 -184
-340 -276 -492 -107 -176 -126 -233 -97 -291 11 -22 28 -39 43 -42 14 -4 146
-10 293 -13 466 -12 626 -38 806 -133 46 -24 87 -44 92 -44 28 0 -11 90 -64
148 -11 12 -15 22 -9 22 28 0 153 -55 230 -101 120 -73 144 -54 72 58 -84 130
-215 243 -340 293 -30 12 -124 44 -208 72 -84 27 -152 53 -150 57 2 5 73 84
158 176 183 198 256 291 293 373 116 258 7 532 -278 694 -64 37 -145 72 -313
137 -56 22 -123 54 -148 71 -60 42 -118 117 -144 187 -34 92 -53 266 -46 418
6 116 35 318 48 331 3 2 5 -57 6 -133 0 -130 19 -345 43 -513 24 -167 71 -213
282 -284 402 -134 659 -389 674 -666 6 -107 -14 -206 -61 -303 -47 -97 -158
-263 -250 -372 -41 -49 -76 -93 -76 -96 0 -4 39 -19 87 -34 156 -48 300 -133
398 -234 l39 -41 343 0 c189 0 343 3 343 8 0 12 -172 178 -198 192 -13 6 -22
14 -19 16 9 9 139 -56 200 -100 34 -24 78 -60 96 -80 l35 -36 97 0 c142 0 149
19 50 142 -134 167 -356 257 -745 302 -71 9 -130 17 -132 19 -2 2 31 41 72 88
133 147 273 352 322 472 94 224 77 471 -43 651 -134 201 -317 326 -656 446
l-146 52 79 167 c270 560 312 691 312 966 0 265 -62 472 -206 685 l-51 75 49
-45 c79 -72 121 -129 173 -230 80 -156 102 -239 116 -440 17 -241 -88 -600
-283 -971 l-88 -166 100 -33 c179 -58 390 -180 517 -297 120 -111 211 -257
245 -393 25 -98 15 -291 -21 -445 -37 -153 -38 -189 -7 -193 53 -8 161 86 221
192 74 130 106 277 105 471 -1 121 -5 152 -28 228 -86 287 -257 464 -541 563
-44 15 -81 28 -83 29 -1 1 36 60 83 131 47 71 117 191 155 266 82 160 89 165
220 155 124 -10 195 -42 345 -157 139 -107 221 -135 499 -175 153 -22 224 -47
410 -143 191 -99 317 -177 412 -255 158 -130 154 -127 192 -127 82 0 222 102
293 211 94 147 115 368 48 501 -21 40 -62 75 -210 178 -52 36 -140 110 -195
165 -95 93 -103 105 -123 169 -11 37 -21 78 -21 90 0 43 -42 172 -81 247 -70
134 -164 232 -335 347 -47 31 -70 56 -102 110 -133 224 -363 458 -638 651 -53
37 -64 42 -83 32 -11 -7 -21 -17 -21 -24 0 -7 43 -77 96 -157 92 -140 220
-379 213 -399 -6 -15 -178 45 -246 86 -34 21 -100 69 -145 107 -95 80 -231
171 -368 246 -174 97 -403 185 -433 168 -36 -19 -17 -47 96 -141 126 -107 309
-291 380 -384 26 -34 47 -64 47 -67 0 -3 -30 -6 -67 -6 -38 0 -111 -7 -163
-15 -194 -31 -184 -31 -252 3 -35 17 -133 84 -218 148 -169 126 -323 233 -410
282 -120 68 -302 135 -450 168 -89 19 -357 27 -445 14z m3102 -1222 c155 -58
241 -243 187 -402 -24 -69 -102 -150 -170 -175 -108 -41 -227 -22 -309 51 -87
76 -122 171 -105 286 11 80 35 128 91 183 79 77 194 99 306 57z m890 -940 c13
-15 47 -127 41 -133 -8 -8 -67 40 -82 67 -16 26 -21 79 -10 91 8 7 36 -6 51
-25z m-2476 -1275 c20 -116 -21 -262 -102 -364 -17 -22 -34 -39 -38 -39 -5 0
7 39 26 86 50 123 76 258 71 367 l-4 89 18 -36 c10 -19 23 -65 29 -103z"/>
<path d="M6932 7030 c-21 -13 -41 -38 -54 -67 -18 -41 -19 -52 -9 -99 19 -82
85 -133 156 -120 69 13 115 76 115 156 0 116 -114 187 -208 130z"/>
<path d="M7007 3230 c-54 -15 -103 -32 -109 -38 -5 -5 -8 -20 -6 -33 2 -19 11
-25 41 -30 21 -3 43 -11 50 -18 9 -9 12 -122 12 -445 0 -414 -1 -435 -19 -455
-11 -12 -33 -25 -50 -29 -26 -7 -31 -13 -31 -38 l0 -29 198 -3 197 -2 0 33 c0
29 -4 34 -42 47 -35 12 -45 22 -55 50 -9 25 -12 173 -12 528 l-1 492 -37 -1
c-21 0 -82 -13 -136 -29z"/>
<path d="M5184 3226 c-43 -19 -64 -53 -64 -104 0 -37 6 -50 34 -78 29 -29 41
-34 79 -34 54 0 91 26 107 74 20 61 -6 117 -67 142 -39 17 -49 17 -89 0z"/>
<path d="M6568 3224 c-72 -31 -87 -126 -28 -186 61 -61 173 -23 187 64 15 94
-70 159 -159 122z"/>
<path d="M1883 3216 c-205 -39 -360 -179 -419 -381 -22 -75 -25 -247 -5 -325
46 -183 175 -323 350 -380 59 -19 74 -28 97 -62 117 -169 383 -264 604 -217
51 11 51 11 48 47 -2 27 -7 36 -18 33 -8 -2 -39 -4 -68 -4 -77 0 -181 54 -257
134 l-58 61 84 41 c280 138 389 472 248 765 -106 221 -350 336 -606 288z m200
-102 c105 -36 189 -150 223 -301 23 -104 16 -291 -16 -384 -45 -134 -141 -217
-264 -226 -201 -17 -346 161 -359 437 -7 159 35 306 111 391 82 92 192 122
305 83z"/>
<path d="M5500 3176 c0 -34 1 -35 47 -42 28 -4 56 -16 70 -30 l23 -23 0 -421
0 -421 -23 -23 c-13 -13 -42 -26 -65 -30 -40 -6 -42 -8 -42 -41 l0 -35 258 2
257 3 3 32 3 31 -66 7 c-48 6 -74 14 -93 30 -27 23 -27 24 -30 189 l-4 166 94
0 c272 1 440 116 455 314 13 162 -96 286 -278 315 -35 6 -187 11 -336 11
l-273 0 0 -34z m543 -82 c79 -27 137 -110 137 -197 0 -145 -116 -243 -277
-235 l-58 3 -3 223 -2 222 78 0 c45 0 98 -7 125 -16z"/>
<path d="M2834 2894 c-6 -2 -62 -15 -125 -27 -89 -18 -115 -27 -117 -41 -5
-25 17 -46 48 -46 15 0 35 -9 46 -21 17 -19 19 -43 24 -273 5 -273 7 -282 67
-338 94 -90 243 -74 363 38 l50 47 0 -66 c0 -36 4 -68 9 -71 8 -5 225 28 264
40 13 4 17 14 15 37 -3 28 -7 32 -41 38 -21 3 -43 11 -50 18 -9 9 -13 104 -17
339 l-5 327 -25 -2 c-14 -1 -74 -13 -135 -26 -110 -23 -110 -24 -110 -53 0
-24 5 -30 26 -32 56 -6 58 -18 59 -261 1 -204 0 -224 -17 -237 -67 -55 -179
-71 -226 -34 -15 12 -31 38 -37 58 -6 21 -10 155 -10 315 l0 277 -22 -1 c-13
0 -28 -3 -34 -5z"/>
<path d="M3790 2885 c-68 -19 -125 -56 -144 -93 -8 -16 -18 -52 -22 -80 -6
-51 -6 -52 20 -52 20 0 30 8 43 37 28 57 63 77 141 81 78 3 106 -8 139 -57 17
-26 23 -48 23 -91 l0 -58 -56 -7 c-71 -9 -186 -40 -233 -64 -46 -24 -105 -83
-125 -126 -39 -82 -7 -204 66 -253 87 -57 211 -35 311 57 l45 41 6 -35 c16
-86 92 -115 197 -76 101 38 149 121 61 106 -30 -5 -44 -2 -63 14 l-24 19 -3
244 c-1 133 -5 253 -7 265 -8 33 -62 91 -109 115 -54 28 -189 34 -266 13z
m200 -486 c0 -97 -1 -102 -28 -129 -37 -37 -101 -56 -144 -44 -49 14 -81 67
-75 123 7 64 46 98 143 127 44 12 85 23 92 23 9 1 12 -26 12 -100z"/>
<path d="M4542 2882 c-97 -35 -152 -111 -152 -212 0 -68 27 -129 69 -159 18
-13 87 -47 154 -77 139 -61 177 -94 177 -150 0 -28 -8 -44 -34 -70 -31 -31
-40 -34 -90 -34 -89 0 -140 37 -190 138 -23 45 -30 52 -56 52 l-30 0 0 -104
c0 -100 1 -104 26 -120 14 -10 62 -27 107 -38 161 -41 328 -1 397 94 40 55 56
132 41 195 -24 92 -74 135 -231 194 -131 50 -185 114 -149 181 16 30 73 50
124 43 62 -10 102 -38 127 -90 23 -46 59 -68 79 -48 6 6 9 45 7 89 l-3 79 -60
24 c-84 34 -237 40 -313 13z"/>
<path d="M5215 2875 c-44 -13 -99 -28 -123 -35 -39 -10 -43 -14 -40 -38 2 -21
10 -28 35 -33 64 -13 63 -6 63 -283 0 -278 -1 -281 -61 -301 -28 -10 -34 -17
-34 -41 l0 -29 193 -3 193 -2 -3 32 c-2 26 -8 33 -34 40 -59 15 -59 11 -64
377 -6 389 8 355 -125 316z"/>
<path d="M6566 2864 c-66 -18 -124 -38 -129 -43 -20 -20 -2 -46 37 -52 67 -11
67 -14 64 -292 l-3 -249 -28 -24 c-15 -13 -37 -24 -48 -24 -15 0 -19 -7 -19
-35 l0 -35 196 0 195 0 -3 32 c-2 26 -9 33 -34 40 -17 4 -39 17 -50 29 -18 20
-19 42 -22 355 -3 308 -4 334 -20 333 -9 -1 -71 -16 -136 -35z"/>
<path d="M7605 2886 c-63 -20 -97 -41 -141 -88 -90 -93 -128 -235 -105 -388
31 -197 161 -312 356 -314 69 -1 88 3 138 27 70 35 177 134 177 164 0 36 -18
36 -70 3 -116 -74 -238 -79 -327 -14 -41 31 -80 115 -86 187 l-5 57 208 0
c115 0 220 4 235 10 14 5 30 21 35 36 13 33 -4 143 -30 194 -27 52 -95 108
-154 125 -60 18 -176 18 -231 1z m158 -80 c61 -26 97 -90 97 -173 l0 -33 -160
0 -159 0 5 33 c7 40 50 131 69 147 16 13 82 39 103 40 7 0 27 -6 45 -14z"/>
<path d="M8243 2868 c-120 -30 -123 -32 -123 -58 0 -24 5 -28 36 -33 66 -11
64 -3 64 -286 0 -284 -2 -293 -63 -309 -27 -7 -32 -13 -32 -38 l0 -29 198 -3
197 -2 0 30 c0 20 -6 33 -17 36 -55 18 -72 28 -82 50 -17 38 -15 388 3 422 23
44 61 73 104 79 34 5 44 1 67 -21 44 -44 103 -26 131 40 37 89 -4 154 -98 154
-68 0 -159 -66 -199 -142 -11 -21 -22 -38 -25 -38 -4 0 -5 39 -3 88 5 106 13
102 -158 60z"/>
</g>
</svg>
